<svg width="126" height="126" viewBox="0 0 126 126" fill="none" xmlns="http://www.w3.org/2000/svg">
<path d="M63 126C97.7939 126 126 97.7939 126 63C126 28.2061 97.7939 0 63 0C28.2061 0 0 28.2061 0 63C0 97.7939 28.2061 126 63 126Z" fill="#1B8F43"/>
<path fill-rule="evenodd" clip-rule="evenodd" d="M105.04 48.9522H91.0949V35.1407H77.0653V21.3292H49.0122V35.1407H34.9825V48.9522H20.959V76.5693H34.9886V90.3808H49.0182V104.192H77.0714V90.3808H91.101V76.5693H105.046V48.9522H105.04Z" fill="#FFF200"/>
<path fill-rule="evenodd" clip-rule="evenodd" d="M98.1106 55.8579H84.081V42.0464H70.0513V28.2349H56.0278V42.0464H41.9982V55.8579H27.9746V69.6695H42.0042V83.481H56.0338V97.2077H70.0635V83.475H84.0931V69.6634H98.1227V55.8579H98.1106Z" fill="white"/>
<path fill-rule="evenodd" clip-rule="evenodd" d="M84.0808 55.858H70.0512V42.0465H56.0277V55.858H41.998V69.6696H56.0277V83.4811H70.0573V69.6696H84.0869V55.858H84.0808Z" fill="#ED1C24"/>
</svg>
