<svg width="176" height="28" viewBox="0 0 176 28" fill="none" xmlns="http://www.w3.org/2000/svg">
<path fill-rule="evenodd" clip-rule="evenodd" d="M37.3984 4.00076H42.694V25.0465H37.3984V4.00076Z" fill="#1B8F43"/>
<path fill-rule="evenodd" clip-rule="evenodd" d="M45.7422 9.97397H50.4417V12.0324H50.5297C51.663 10.4068 53.1286 9.53151 55.2585 9.53151C58.6098 9.53151 60.5834 11.8881 60.5834 15.245V25.0465H55.708V16.2165C55.708 14.6294 54.897 13.5425 53.3142 13.5425C51.7021 13.5425 50.6176 14.8699 50.6176 16.7263V25.0561H45.7422V9.97397Z" fill="#1B8F43"/>
<path fill-rule="evenodd" clip-rule="evenodd" d="M63.2012 4.00076H68.018V15.0719L72.5612 9.97398H78.1791L72.7957 15.6298L78.8044 25.0465H73.1572L69.4835 18.8905L68.018 20.4199V25.0369H63.2012V4.00076Z" fill="#1B8F43"/>
<path fill-rule="evenodd" clip-rule="evenodd" d="M84.911 16.0915C81.7357 16.5051 79.0488 17.5054 79.0488 20.8335C79.0488 23.8057 81.2374 25.4312 84.2857 25.4312C86.5818 25.4312 87.9301 24.6425 88.829 23.3728H88.8876C89.0048 24.1327 89.1612 24.7195 89.3956 25.0465H94.1245V24.8445C93.7044 24.5848 93.5871 23.9115 93.5871 22.6995V15.1008C93.5871 13.2155 92.9618 11.7438 91.6428 10.8012C90.5388 9.97398 88.9853 9.56038 86.6795 9.56038C82.0483 9.56038 79.8598 11.9458 79.7425 14.7449H84.2271C84.3737 13.4752 85.1553 12.8019 86.7088 12.8019C88.1744 12.8019 88.7997 13.4463 88.7997 14.4178C88.7997 15.447 87.7835 15.7356 84.911 16.0915ZM88.9168 17.8613V19.66C88.9168 21.276 87.6662 22.3629 85.8391 22.3725C84.6472 22.3725 83.7483 21.9012 83.7483 20.6892C83.7483 19.5446 84.5202 19.0733 86.4058 18.6597C87.3926 18.4192 88.2915 18.1787 88.9168 17.8613Z" fill="#1B8F43"/>
<path fill-rule="evenodd" clip-rule="evenodd" d="M97.5049 13.0327H95.5312V9.97397H97.5049V8.88705C97.5049 7.32882 97.9543 6.17458 98.7555 5.38584C100.074 4.11617 102.615 3.82761 105.243 4.08732V7.4731C103.387 7.41539 102.371 7.55967 102.371 9.24295V9.98359H105.243V13.0423H102.371V25.0561H97.4951V13.0327H97.5049Z" fill="#1B8F43"/>
<path fill-rule="evenodd" clip-rule="evenodd" d="M111.917 16.0915C108.742 16.5051 106.055 17.5054 106.055 20.8335C106.055 23.8057 108.233 25.4312 111.282 25.4312C113.588 25.4312 114.926 24.6425 115.825 23.3728H115.884C116.001 24.1327 116.157 24.7195 116.392 25.0465H121.121V24.8445C120.7 24.5848 120.583 23.9115 120.583 22.6995V15.1008C120.583 13.2155 119.958 11.7438 118.639 10.8012C117.535 9.97398 115.981 9.56038 113.676 9.56038C109.044 9.56038 106.856 11.9458 106.739 14.7449H111.233C111.38 13.4752 112.161 12.8019 113.715 12.8019C115.18 12.8019 115.806 13.4463 115.806 14.4178C115.806 15.447 114.789 15.7356 111.917 16.0915ZM115.923 17.8613V19.66C115.923 21.276 114.662 22.3629 112.845 22.3725C111.653 22.3725 110.754 21.9012 110.754 20.6892C110.754 19.5446 111.526 19.0733 113.412 18.6597C114.398 18.4192 115.297 18.1787 115.923 17.8613Z" fill="#1B8F43"/>
<path fill-rule="evenodd" clip-rule="evenodd" d="M123.367 9.97396H128.028V12.3305H128.116C129.19 10.5318 130.451 9.74311 132.297 9.74311C132.747 9.74311 133.04 9.77197 133.255 9.85854V13.9753H133.138C130.148 13.5617 128.233 15.0045 128.233 18.2749V25.0465H123.357V9.97396H123.367Z" fill="#1B8F43"/>
<path fill-rule="evenodd" clip-rule="evenodd" d="M135.238 9.97397H139.899V12.1189H139.987C140.944 10.5607 142.41 9.53151 144.618 9.53151C146.621 9.53151 148.145 10.5607 148.927 12.1767H148.985C150.177 10.3491 151.828 9.53151 153.802 9.53151C157.27 9.53151 159.01 11.8592 159.01 15.245V25.0465H154.134V16.1011C154.134 14.4851 153.44 13.5425 151.985 13.5425C150.431 13.5425 149.562 14.8122 149.562 16.6013V25.0465H144.686V16.1011C144.686 14.4851 144.002 13.5425 142.537 13.5425C141.013 13.5425 140.114 14.8122 140.114 16.6013V25.0465H135.238V9.97397H135.238Z" fill="#1B8F43"/>
<path fill-rule="evenodd" clip-rule="evenodd" d="M166.786 16.0915C163.611 16.5051 160.924 17.5054 160.924 20.8335C160.924 23.8057 163.103 25.4312 166.161 25.4312C168.457 25.4312 169.805 24.6425 170.704 23.3728H170.763C170.88 24.1327 171.036 24.7195 171.271 25.0465H176V24.8445C175.579 24.5848 175.462 23.9115 175.462 22.6995V15.1008C175.462 13.2155 174.837 11.7438 173.518 10.8012C172.414 9.97398 170.86 9.56038 168.554 9.56038C163.923 9.56038 161.735 11.9458 161.618 14.7449H166.102C166.249 13.4752 167.03 12.8019 168.584 12.8019C170.049 12.8019 170.675 13.4463 170.675 14.4178C170.675 15.447 169.659 15.7356 166.786 16.0915ZM170.792 17.8613V19.66C170.792 21.276 169.531 22.3629 167.714 22.3725C166.522 22.3725 165.623 21.9012 165.623 20.6892C165.623 19.5446 166.395 19.0733 168.281 18.6597C169.268 18.4192 170.167 18.1787 170.792 17.8613Z" fill="#1B8F43"/>
<path fill-rule="evenodd" clip-rule="evenodd" d="M28.6917 13.9623C28.6917 21.6849 22.3354 27.9426 14.491 27.9426C6.66495 27.9426 0.308594 21.6849 0.308594 13.9623C0.308594 6.23964 6.66495 3.91048e-05 14.491 3.91048e-05C22.3538 -0.0180467 28.6917 6.23964 28.6917 13.9623Z" fill="#1B8F43"/>
<path fill-rule="evenodd" clip-rule="evenodd" d="M23.9698 10.8515H20.8283V7.74079H17.6685V4.63003H11.3489V7.74079H8.1891V10.8515H5.0293V17.0731H8.1891V20.1838H11.3489V23.2946H17.6685V20.1838H20.8283V17.0731H23.9698V10.8515Z" fill="#FFF200"/>
<path fill-rule="evenodd" clip-rule="evenodd" d="M22.4084 12.4067H19.2486V9.29598H16.0888V6.18522H12.929V9.29598H9.76918V12.4067H6.60938V15.5175H9.76918V18.6283H12.929V21.7209H16.0888V18.6283H19.2486V15.5175H22.4084V12.4067Z" fill="white"/>
<path fill-rule="evenodd" clip-rule="evenodd" d="M19.2489 12.407H16.0891V9.29629H12.9293V12.407H9.76953V15.5178H12.9293V18.6286H16.0891V15.5178H19.2489V12.407Z" fill="#ED1C24"/>
</svg>
